<?xml version="1.0" encoding="utf-8" standalone="no"?>
<!DOCTYPE svg PUBLIC "-//W3C//DTD SVG 1.1//EN"
  "http://www.w3.org/Graphics/SVG/1.1/DTD/svg11.dtd">
<!-- Created with matplotlib (http://matplotlib.org/) -->
<svg height="343pt" version="1.1" viewBox="0 0 545 343" width="545pt" xmlns="http://www.w3.org/2000/svg" xmlns:xlink="http://www.w3.org/1999/xlink">
 <defs>
  <style type="text/css">
*{stroke-linecap:butt;stroke-linejoin:round;}
  </style>
 </defs>
 <g id="figure_1">
  <g id="patch_1">
   <path d="M 0 343.56 
L 545.323906 343.56 
L 545.323906 0 
L 0 0 
z
" style="fill:none;"/>
  </g>
  <g id="axes_1">
   <g id="patch_2">
    <path d="M 88.223906 300.196875 
L 534.623906 300.196875 
L 534.623906 28.396875 
L 88.223906 28.396875 
z
" style="fill:none;"/>
   </g>
   <g id="patch_3">
    <path clip-path="url(#p6e004d4657)" d="M 88.223906 287.84233 
L 268.16142 287.84233 
L 268.16142 280.7318 
L 88.223906 280.7318 
z
" style="fill:#314e14;"/>
   </g>
   <g id="patch_4">
    <path clip-path="url(#p6e004d4657)" d="M 88.223906 278.954167 
L 315.239445 278.954167 
L 315.239445 271.843638 
L 88.223906 271.843638 
z
" style="fill:#314e14;"/>
   </g>
   <g id="patch_5">
    <path clip-path="url(#p6e004d4657)" d="M 88.223906 270.066005 
L 228.091173 270.066005 
L 228.091173 262.955475 
L 88.223906 262.955475 
z
" style="fill:#314e14;"/>
   </g>
   <g id="patch_6">
    <path clip-path="url(#p6e004d4657)" d="M 88.223906 261.177843 
L 336.040711 261.177843 
L 336.040711 254.067313 
L 88.223906 254.067313 
z
" style="fill:#314e14;"/>
   </g>
   <g id="patch_7">
    <path clip-path="url(#p6e004d4657)" d="M 88.223906 252.289681 
L 326.571585 252.289681 
L 326.571585 245.179151 
L 88.223906 245.179151 
z
" style="fill:#314e14;"/>
   </g>
   <g id="patch_8">
    <path clip-path="url(#p6e004d4657)" d="M 88.223906 243.401519 
L 379.473985 243.401519 
L 379.473985 236.290989 
L 88.223906 236.290989 
z
" style="fill:#314e14;"/>
   </g>
   <g id="patch_9">
    <path clip-path="url(#p6e004d4657)" d="M 88.223906 234.513356 
L 343.639556 234.513356 
L 343.639556 227.402827 
L 88.223906 227.402827 
z
" style="fill:#314e14;"/>
   </g>
   <g id="patch_10">
    <path clip-path="url(#p6e004d4657)" d="M 88.223906 225.625194 
L 253.643448 225.625194 
L 253.643448 218.514664 
L 88.223906 218.514664 
z
" style="fill:#314e14;"/>
   </g>
   <g id="patch_11">
    <path clip-path="url(#p6e004d4657)" d="M 88.223906 216.737032 
L 370.979434 216.737032 
L 370.979434 209.626502 
L 88.223906 209.626502 
z
" style="fill:#314e14;"/>
   </g>
   <g id="patch_12">
    <path clip-path="url(#p6e004d4657)" d="M 88.223906 207.84887 
L 331.410711 207.84887 
L 331.410711 200.73834 
L 88.223906 200.73834 
z
" style="fill:#314e14;"/>
   </g>
   <g id="patch_13">
    <path clip-path="url(#p6e004d4657)" d="M 88.223906 198.960708 
L 289.178016 198.960708 
L 289.178016 191.850178 
L 88.223906 191.850178 
z
" style="fill:#314e14;"/>
   </g>
   <g id="patch_14">
    <path clip-path="url(#p6e004d4657)" d="M 88.223906 190.072545 
L 395.601874 190.072545 
L 395.601874 182.962016 
L 88.223906 182.962016 
z
" style="fill:#314e14;"/>
   </g>
   <g id="patch_15">
    <path clip-path="url(#p6e004d4657)" d="M 88.223906 181.184383 
L 407.269723 181.184383 
L 407.269723 174.073853 
L 88.223906 174.073853 
z
" style="fill:#314e14;"/>
   </g>
   <g id="patch_16">
    <path clip-path="url(#p6e004d4657)" d="M 88.223906 172.296221 
L 393.575523 172.296221 
L 393.575523 165.185691 
L 88.223906 165.185691 
z
" style="fill:#314e14;"/>
   </g>
   <g id="patch_17">
    <path clip-path="url(#p6e004d4657)" d="M 88.223906 163.408059 
L 410.135586 163.408059 
L 410.135586 156.297529 
L 88.223906 156.297529 
z
" style="fill:#314e14;"/>
   </g>
   <g id="patch_18">
    <path clip-path="url(#p6e004d4657)" d="M 88.223906 154.519897 
L 337.765668 154.519897 
L 337.765668 147.409367 
L 88.223906 147.409367 
z
" style="fill:#314e14;"/>
   </g>
   <g id="patch_19">
    <path clip-path="url(#p6e004d4657)" d="M 88.223906 145.631734 
L 448.389421 145.631734 
L 448.389421 138.521205 
L 88.223906 138.521205 
z
" style="fill:#314e14;"/>
   </g>
   <g id="patch_20">
    <path clip-path="url(#p6e004d4657)" d="M 88.223906 136.743572 
L 464.607071 136.743572 
L 464.607071 129.633042 
L 88.223906 129.633042 
z
" style="fill:#314e14;"/>
   </g>
   <g id="patch_21">
    <path clip-path="url(#p6e004d4657)" d="M 88.223906 127.85541 
L 396.142026 127.85541 
L 396.142026 120.74488 
L 88.223906 120.74488 
z
" style="fill:#314e14;"/>
   </g>
   <g id="patch_22">
    <path clip-path="url(#p6e004d4657)" d="M 88.223906 118.967248 
L 420.202029 118.967248 
L 420.202029 111.856718 
L 88.223906 111.856718 
z
" style="fill:#314e14;"/>
   </g>
   <g id="patch_23">
    <path clip-path="url(#p6e004d4657)" d="M 88.223906 110.079086 
L 444.454549 110.079086 
L 444.454549 102.968556 
L 88.223906 102.968556 
z
" style="fill:#314e14;"/>
   </g>
   <g id="patch_24">
    <path clip-path="url(#p6e004d4657)" d="M 88.223906 101.190923 
L 398.970272 101.190923 
L 398.970272 94.080394 
L 88.223906 94.080394 
z
" style="fill:#314e14;"/>
   </g>
   <g id="patch_25">
    <path clip-path="url(#p6e004d4657)" d="M 88.223906 92.302761 
L 470.083759 92.302761 
L 470.083759 85.192231 
L 88.223906 85.192231 
z
" style="fill:#314e14;"/>
   </g>
   <g id="patch_26">
    <path clip-path="url(#p6e004d4657)" d="M 88.223906 83.414599 
L 501.139502 83.414599 
L 501.139502 76.304069 
L 88.223906 76.304069 
z
" style="fill:#314e14;"/>
   </g>
   <g id="patch_27">
    <path clip-path="url(#p6e004d4657)" d="M 88.223906 74.526437 
L 455.429032 74.526437 
L 455.429032 67.415907 
L 88.223906 67.415907 
z
" style="fill:#314e14;"/>
   </g>
   <g id="patch_28">
    <path clip-path="url(#p6e004d4657)" d="M 88.223906 65.638275 
L 473.393244 65.638275 
L 473.393244 58.527745 
L 88.223906 58.527745 
z
" style="fill:#314e14;"/>
   </g>
   <g id="patch_29">
    <path clip-path="url(#p6e004d4657)" d="M 88.223906 56.750112 
L 513.366763 56.750112 
L 513.366763 49.639583 
L 88.223906 49.639583 
z
" style="fill:#314e14;"/>
   </g>
   <g id="patch_30">
    <path clip-path="url(#p6e004d4657)" d="M 88.223906 47.86195 
L 496.963571 47.86195 
L 496.963571 40.75142 
L 88.223906 40.75142 
z
" style="fill:#314e14;"/>
   </g>
   <g id="matplotlib.axis_1">
    <g id="xtick_1">
     <g id="line2d_1">
      <path clip-path="url(#p6e004d4657)" d="M 88.223906 300.196875 
L 88.223906 28.396875 
" style="fill:none;stroke:#b0b0b0;stroke-dasharray:0.8,1.32;stroke-dashoffset:0;stroke-width:0.8;"/>
     </g>
     <g id="line2d_2">
      <defs>
       <path d="M 0 0 
L 0 3.5 
" id="m547f161caf" style="stroke:#000000;stroke-width:0.8;"/>
      </defs>
      <g>
       <use style="stroke:#000000;stroke-width:0.8;" x="88.223906" xlink:href="#m547f161caf" y="300.196875"/>
      </g>
     </g>
     <g id="text_1">
      <!-- 0 -->
      <defs>
       <path d="M 31.78125 66.40625 
Q 24.171875 66.40625 20.328125 58.90625 
Q 16.5 51.421875 16.5 36.375 
Q 16.5 21.390625 20.328125 13.890625 
Q 24.171875 6.390625 31.78125 6.390625 
Q 39.453125 6.390625 43.28125 13.890625 
Q 47.125 21.390625 47.125 36.375 
Q 47.125 51.421875 43.28125 58.90625 
Q 39.453125 66.40625 31.78125 66.40625 
z
M 31.78125 74.21875 
Q 44.046875 74.21875 50.515625 64.515625 
Q 56.984375 54.828125 56.984375 36.375 
Q 56.984375 17.96875 50.515625 8.265625 
Q 44.046875 -1.421875 31.78125 -1.421875 
Q 19.53125 -1.421875 13.0625 8.265625 
Q 6.59375 17.96875 6.59375 36.375 
Q 6.59375 54.828125 13.0625 64.515625 
Q 19.53125 74.21875 31.78125 74.21875 
z
" id="DejaVuSans-30"/>
      </defs>
      <g transform="translate(85.042656 314.795313)scale(0.1 -0.1)">
       <use xlink:href="#DejaVuSans-30"/>
      </g>
     </g>
    </g>
    <g id="xtick_2">
     <g id="line2d_3">
      <path clip-path="url(#p6e004d4657)" d="M 140.738046 300.196875 
L 140.738046 28.396875 
" style="fill:none;stroke:#b0b0b0;stroke-dasharray:0.8,1.32;stroke-dashoffset:0;stroke-width:0.8;"/>
     </g>
     <g id="line2d_4">
      <g>
       <use style="stroke:#000000;stroke-width:0.8;" x="140.738046" xlink:href="#m547f161caf" y="300.196875"/>
      </g>
     </g>
     <g id="text_2">
      <!-- 200 -->
      <defs>
       <path d="M 19.1875 8.296875 
L 53.609375 8.296875 
L 53.609375 0 
L 7.328125 0 
L 7.328125 8.296875 
Q 12.9375 14.109375 22.625 23.890625 
Q 32.328125 33.6875 34.8125 36.53125 
Q 39.546875 41.84375 41.421875 45.53125 
Q 43.3125 49.21875 43.3125 52.78125 
Q 43.3125 58.59375 39.234375 62.25 
Q 35.15625 65.921875 28.609375 65.921875 
Q 23.96875 65.921875 18.8125 64.3125 
Q 13.671875 62.703125 7.8125 59.421875 
L 7.8125 69.390625 
Q 13.765625 71.78125 18.9375 73 
Q 24.125 74.21875 28.421875 74.21875 
Q 39.75 74.21875 46.484375 68.546875 
Q 53.21875 62.890625 53.21875 53.421875 
Q 53.21875 48.921875 51.53125 44.890625 
Q 49.859375 40.875 45.40625 35.40625 
Q 44.1875 33.984375 37.640625 27.21875 
Q 31.109375 20.453125 19.1875 8.296875 
z
" id="DejaVuSans-32"/>
      </defs>
      <g transform="translate(131.194296 314.795313)scale(0.1 -0.1)">
       <use xlink:href="#DejaVuSans-32"/>
       <use x="63.623047" xlink:href="#DejaVuSans-30"/>
       <use x="127.246094" xlink:href="#DejaVuSans-30"/>
      </g>
     </g>
    </g>
    <g id="xtick_3">
     <g id="line2d_5">
      <path clip-path="url(#p6e004d4657)" d="M 193.252187 300.196875 
L 193.252187 28.396875 
" style="fill:none;stroke:#b0b0b0;stroke-dasharray:0.8,1.32;stroke-dashoffset:0;stroke-width:0.8;"/>
     </g>
     <g id="line2d_6">
      <g>
       <use style="stroke:#000000;stroke-width:0.8;" x="193.252187" xlink:href="#m547f161caf" y="300.196875"/>
      </g>
     </g>
     <g id="text_3">
      <!-- 400 -->
      <defs>
       <path d="M 37.796875 64.3125 
L 12.890625 25.390625 
L 37.796875 25.390625 
z
M 35.203125 72.90625 
L 47.609375 72.90625 
L 47.609375 25.390625 
L 58.015625 25.390625 
L 58.015625 17.1875 
L 47.609375 17.1875 
L 47.609375 0 
L 37.796875 0 
L 37.796875 17.1875 
L 4.890625 17.1875 
L 4.890625 26.703125 
z
" id="DejaVuSans-34"/>
      </defs>
      <g transform="translate(183.708437 314.795313)scale(0.1 -0.1)">
       <use xlink:href="#DejaVuSans-34"/>
       <use x="63.623047" xlink:href="#DejaVuSans-30"/>
       <use x="127.246094" xlink:href="#DejaVuSans-30"/>
      </g>
     </g>
    </g>
    <g id="xtick_4">
     <g id="line2d_7">
      <path clip-path="url(#p6e004d4657)" d="M 245.766327 300.196875 
L 245.766327 28.396875 
" style="fill:none;stroke:#b0b0b0;stroke-dasharray:0.8,1.32;stroke-dashoffset:0;stroke-width:0.8;"/>
     </g>
     <g id="line2d_8">
      <g>
       <use style="stroke:#000000;stroke-width:0.8;" x="245.766327" xlink:href="#m547f161caf" y="300.196875"/>
      </g>
     </g>
     <g id="text_4">
      <!-- 600 -->
      <defs>
       <path d="M 33.015625 40.375 
Q 26.375 40.375 22.484375 35.828125 
Q 18.609375 31.296875 18.609375 23.390625 
Q 18.609375 15.53125 22.484375 10.953125 
Q 26.375 6.390625 33.015625 6.390625 
Q 39.65625 6.390625 43.53125 10.953125 
Q 47.40625 15.53125 47.40625 23.390625 
Q 47.40625 31.296875 43.53125 35.828125 
Q 39.65625 40.375 33.015625 40.375 
z
M 52.59375 71.296875 
L 52.59375 62.3125 
Q 48.875 64.0625 45.09375 64.984375 
Q 41.3125 65.921875 37.59375 65.921875 
Q 27.828125 65.921875 22.671875 59.328125 
Q 17.53125 52.734375 16.796875 39.40625 
Q 19.671875 43.65625 24.015625 45.921875 
Q 28.375 48.1875 33.59375 48.1875 
Q 44.578125 48.1875 50.953125 41.515625 
Q 57.328125 34.859375 57.328125 23.390625 
Q 57.328125 12.15625 50.6875 5.359375 
Q 44.046875 -1.421875 33.015625 -1.421875 
Q 20.359375 -1.421875 13.671875 8.265625 
Q 6.984375 17.96875 6.984375 36.375 
Q 6.984375 53.65625 15.1875 63.9375 
Q 23.390625 74.21875 37.203125 74.21875 
Q 40.921875 74.21875 44.703125 73.484375 
Q 48.484375 72.75 52.59375 71.296875 
z
" id="DejaVuSans-36"/>
      </defs>
      <g transform="translate(236.222577 314.795313)scale(0.1 -0.1)">
       <use xlink:href="#DejaVuSans-36"/>
       <use x="63.623047" xlink:href="#DejaVuSans-30"/>
       <use x="127.246094" xlink:href="#DejaVuSans-30"/>
      </g>
     </g>
    </g>
    <g id="xtick_5">
     <g id="line2d_9">
      <path clip-path="url(#p6e004d4657)" d="M 298.280467 300.196875 
L 298.280467 28.396875 
" style="fill:none;stroke:#b0b0b0;stroke-dasharray:0.8,1.32;stroke-dashoffset:0;stroke-width:0.8;"/>
     </g>
     <g id="line2d_10">
      <g>
       <use style="stroke:#000000;stroke-width:0.8;" x="298.280467" xlink:href="#m547f161caf" y="300.196875"/>
      </g>
     </g>
     <g id="text_5">
      <!-- 800 -->
      <defs>
       <path d="M 31.78125 34.625 
Q 24.75 34.625 20.71875 30.859375 
Q 16.703125 27.09375 16.703125 20.515625 
Q 16.703125 13.921875 20.71875 10.15625 
Q 24.75 6.390625 31.78125 6.390625 
Q 38.8125 6.390625 42.859375 10.171875 
Q 46.921875 13.96875 46.921875 20.515625 
Q 46.921875 27.09375 42.890625 30.859375 
Q 38.875 34.625 31.78125 34.625 
z
M 21.921875 38.8125 
Q 15.578125 40.375 12.03125 44.71875 
Q 8.5 49.078125 8.5 55.328125 
Q 8.5 64.0625 14.71875 69.140625 
Q 20.953125 74.21875 31.78125 74.21875 
Q 42.671875 74.21875 48.875 69.140625 
Q 55.078125 64.0625 55.078125 55.328125 
Q 55.078125 49.078125 51.53125 44.71875 
Q 48 40.375 41.703125 38.8125 
Q 48.828125 37.15625 52.796875 32.3125 
Q 56.78125 27.484375 56.78125 20.515625 
Q 56.78125 9.90625 50.3125 4.234375 
Q 43.84375 -1.421875 31.78125 -1.421875 
Q 19.734375 -1.421875 13.25 4.234375 
Q 6.78125 9.90625 6.78125 20.515625 
Q 6.78125 27.484375 10.78125 32.3125 
Q 14.796875 37.15625 21.921875 38.8125 
z
M 18.3125 54.390625 
Q 18.3125 48.734375 21.84375 45.5625 
Q 25.390625 42.390625 31.78125 42.390625 
Q 38.140625 42.390625 41.71875 45.5625 
Q 45.3125 48.734375 45.3125 54.390625 
Q 45.3125 60.0625 41.71875 63.234375 
Q 38.140625 66.40625 31.78125 66.40625 
Q 25.390625 66.40625 21.84375 63.234375 
Q 18.3125 60.0625 18.3125 54.390625 
z
" id="DejaVuSans-38"/>
      </defs>
      <g transform="translate(288.736717 314.795313)scale(0.1 -0.1)">
       <use xlink:href="#DejaVuSans-38"/>
       <use x="63.623047" xlink:href="#DejaVuSans-30"/>
       <use x="127.246094" xlink:href="#DejaVuSans-30"/>
      </g>
     </g>
    </g>
    <g id="xtick_6">
     <g id="line2d_11">
      <path clip-path="url(#p6e004d4657)" d="M 350.794607 300.196875 
L 350.794607 28.396875 
" style="fill:none;stroke:#b0b0b0;stroke-dasharray:0.8,1.32;stroke-dashoffset:0;stroke-width:0.8;"/>
     </g>
     <g id="line2d_12">
      <g>
       <use style="stroke:#000000;stroke-width:0.8;" x="350.794607" xlink:href="#m547f161caf" y="300.196875"/>
      </g>
     </g>
     <g id="text_6">
      <!-- 1000 -->
      <defs>
       <path d="M 12.40625 8.296875 
L 28.515625 8.296875 
L 28.515625 63.921875 
L 10.984375 60.40625 
L 10.984375 69.390625 
L 28.421875 72.90625 
L 38.28125 72.90625 
L 38.28125 8.296875 
L 54.390625 8.296875 
L 54.390625 0 
L 12.40625 0 
z
" id="DejaVuSans-31"/>
      </defs>
      <g transform="translate(338.069607 314.795313)scale(0.1 -0.1)">
       <use xlink:href="#DejaVuSans-31"/>
       <use x="63.623047" xlink:href="#DejaVuSans-30"/>
       <use x="127.246094" xlink:href="#DejaVuSans-30"/>
       <use x="190.869141" xlink:href="#DejaVuSans-30"/>
      </g>
     </g>
    </g>
    <g id="xtick_7">
     <g id="line2d_13">
      <path clip-path="url(#p6e004d4657)" d="M 403.308747 300.196875 
L 403.308747 28.396875 
" style="fill:none;stroke:#b0b0b0;stroke-dasharray:0.8,1.32;stroke-dashoffset:0;stroke-width:0.8;"/>
     </g>
     <g id="line2d_14">
      <g>
       <use style="stroke:#000000;stroke-width:0.8;" x="403.308747" xlink:href="#m547f161caf" y="300.196875"/>
      </g>
     </g>
     <g id="text_7">
      <!-- 1200 -->
      <g transform="translate(390.583747 314.795313)scale(0.1 -0.1)">
       <use xlink:href="#DejaVuSans-31"/>
       <use x="63.623047" xlink:href="#DejaVuSans-32"/>
       <use x="127.246094" xlink:href="#DejaVuSans-30"/>
       <use x="190.869141" xlink:href="#DejaVuSans-30"/>
      </g>
     </g>
    </g>
    <g id="xtick_8">
     <g id="line2d_15">
      <path clip-path="url(#p6e004d4657)" d="M 455.822888 300.196875 
L 455.822888 28.396875 
" style="fill:none;stroke:#b0b0b0;stroke-dasharray:0.8,1.32;stroke-dashoffset:0;stroke-width:0.8;"/>
     </g>
     <g id="line2d_16">
      <g>
       <use style="stroke:#000000;stroke-width:0.8;" x="455.822888" xlink:href="#m547f161caf" y="300.196875"/>
      </g>
     </g>
     <g id="text_8">
      <!-- 1400 -->
      <g transform="translate(443.097888 314.795313)scale(0.1 -0.1)">
       <use xlink:href="#DejaVuSans-31"/>
       <use x="63.623047" xlink:href="#DejaVuSans-34"/>
       <use x="127.246094" xlink:href="#DejaVuSans-30"/>
       <use x="190.869141" xlink:href="#DejaVuSans-30"/>
      </g>
     </g>
    </g>
    <g id="xtick_9">
     <g id="line2d_17">
      <path clip-path="url(#p6e004d4657)" d="M 508.337028 300.196875 
L 508.337028 28.396875 
" style="fill:none;stroke:#b0b0b0;stroke-dasharray:0.8,1.32;stroke-dashoffset:0;stroke-width:0.8;"/>
     </g>
     <g id="line2d_18">
      <g>
       <use style="stroke:#000000;stroke-width:0.8;" x="508.337028" xlink:href="#m547f161caf" y="300.196875"/>
      </g>
     </g>
     <g id="text_9">
      <!-- 1600 -->
      <g transform="translate(495.612028 314.795313)scale(0.1 -0.1)">
       <use xlink:href="#DejaVuSans-31"/>
       <use x="63.623047" xlink:href="#DejaVuSans-36"/>
       <use x="127.246094" xlink:href="#DejaVuSans-30"/>
       <use x="190.869141" xlink:href="#DejaVuSans-30"/>
      </g>
     </g>
    </g>
    <g id="text_10">
     <!-- Floor area (ft²) -->
     <defs>
      <path d="M 9.8125 72.90625 
L 51.703125 72.90625 
L 51.703125 64.59375 
L 19.671875 64.59375 
L 19.671875 43.109375 
L 48.578125 43.109375 
L 48.578125 34.8125 
L 19.671875 34.8125 
L 19.671875 0 
L 9.8125 0 
z
" id="DejaVuSans-46"/>
      <path d="M 9.421875 75.984375 
L 18.40625 75.984375 
L 18.40625 0 
L 9.421875 0 
z
" id="DejaVuSans-6c"/>
      <path d="M 30.609375 48.390625 
Q 23.390625 48.390625 19.1875 42.75 
Q 14.984375 37.109375 14.984375 27.296875 
Q 14.984375 17.484375 19.15625 11.84375 
Q 23.34375 6.203125 30.609375 6.203125 
Q 37.796875 6.203125 41.984375 11.859375 
Q 46.1875 17.53125 46.1875 27.296875 
Q 46.1875 37.015625 41.984375 42.703125 
Q 37.796875 48.390625 30.609375 48.390625 
z
M 30.609375 56 
Q 42.328125 56 49.015625 48.375 
Q 55.71875 40.765625 55.71875 27.296875 
Q 55.71875 13.875 49.015625 6.21875 
Q 42.328125 -1.421875 30.609375 -1.421875 
Q 18.84375 -1.421875 12.171875 6.21875 
Q 5.515625 13.875 5.515625 27.296875 
Q 5.515625 40.765625 12.171875 48.375 
Q 18.84375 56 30.609375 56 
z
" id="DejaVuSans-6f"/>
      <path d="M 41.109375 46.296875 
Q 39.59375 47.171875 37.8125 47.578125 
Q 36.03125 48 33.890625 48 
Q 26.265625 48 22.1875 43.046875 
Q 18.109375 38.09375 18.109375 28.8125 
L 18.109375 0 
L 9.078125 0 
L 9.078125 54.6875 
L 18.109375 54.6875 
L 18.109375 46.1875 
Q 20.953125 51.171875 25.484375 53.578125 
Q 30.03125 56 36.53125 56 
Q 37.453125 56 38.578125 55.875 
Q 39.703125 55.765625 41.0625 55.515625 
z
" id="DejaVuSans-72"/>
      <path id="DejaVuSans-20"/>
      <path d="M 34.28125 27.484375 
Q 23.390625 27.484375 19.1875 25 
Q 14.984375 22.515625 14.984375 16.5 
Q 14.984375 11.71875 18.140625 8.90625 
Q 21.296875 6.109375 26.703125 6.109375 
Q 34.1875 6.109375 38.703125 11.40625 
Q 43.21875 16.703125 43.21875 25.484375 
L 43.21875 27.484375 
z
M 52.203125 31.203125 
L 52.203125 0 
L 43.21875 0 
L 43.21875 8.296875 
Q 40.140625 3.328125 35.546875 0.953125 
Q 30.953125 -1.421875 24.3125 -1.421875 
Q 15.921875 -1.421875 10.953125 3.296875 
Q 6 8.015625 6 15.921875 
Q 6 25.140625 12.171875 29.828125 
Q 18.359375 34.515625 30.609375 34.515625 
L 43.21875 34.515625 
L 43.21875 35.40625 
Q 43.21875 41.609375 39.140625 45 
Q 35.0625 48.390625 27.6875 48.390625 
Q 23 48.390625 18.546875 47.265625 
Q 14.109375 46.140625 10.015625 43.890625 
L 10.015625 52.203125 
Q 14.9375 54.109375 19.578125 55.046875 
Q 24.21875 56 28.609375 56 
Q 40.484375 56 46.34375 49.84375 
Q 52.203125 43.703125 52.203125 31.203125 
z
" id="DejaVuSans-61"/>
      <path d="M 56.203125 29.59375 
L 56.203125 25.203125 
L 14.890625 25.203125 
Q 15.484375 15.921875 20.484375 11.0625 
Q 25.484375 6.203125 34.421875 6.203125 
Q 39.59375 6.203125 44.453125 7.46875 
Q 49.3125 8.734375 54.109375 11.28125 
L 54.109375 2.78125 
Q 49.265625 0.734375 44.1875 -0.34375 
Q 39.109375 -1.421875 33.890625 -1.421875 
Q 20.796875 -1.421875 13.15625 6.1875 
Q 5.515625 13.8125 5.515625 26.8125 
Q 5.515625 40.234375 12.765625 48.109375 
Q 20.015625 56 32.328125 56 
Q 43.359375 56 49.78125 48.890625 
Q 56.203125 41.796875 56.203125 29.59375 
z
M 47.21875 32.234375 
Q 47.125 39.59375 43.09375 43.984375 
Q 39.0625 48.390625 32.421875 48.390625 
Q 24.90625 48.390625 20.390625 44.140625 
Q 15.875 39.890625 15.1875 32.171875 
z
" id="DejaVuSans-65"/>
      <path d="M 31 75.875 
Q 24.46875 64.65625 21.28125 53.65625 
Q 18.109375 42.671875 18.109375 31.390625 
Q 18.109375 20.125 21.3125 9.0625 
Q 24.515625 -2 31 -13.1875 
L 23.1875 -13.1875 
Q 15.875 -1.703125 12.234375 9.375 
Q 8.59375 20.453125 8.59375 31.390625 
Q 8.59375 42.28125 12.203125 53.3125 
Q 15.828125 64.359375 23.1875 75.875 
z
" id="DejaVuSans-28"/>
      <path d="M 37.109375 75.984375 
L 37.109375 68.5 
L 28.515625 68.5 
Q 23.6875 68.5 21.796875 66.546875 
Q 19.921875 64.59375 19.921875 59.515625 
L 19.921875 54.6875 
L 34.71875 54.6875 
L 34.71875 47.703125 
L 19.921875 47.703125 
L 19.921875 0 
L 10.890625 0 
L 10.890625 47.703125 
L 2.296875 47.703125 
L 2.296875 54.6875 
L 10.890625 54.6875 
L 10.890625 58.5 
Q 10.890625 67.625 15.140625 71.796875 
Q 19.390625 75.984375 28.609375 75.984375 
z
" id="DejaVuSans-66"/>
      <path d="M 18.3125 70.21875 
L 18.3125 54.6875 
L 36.8125 54.6875 
L 36.8125 47.703125 
L 18.3125 47.703125 
L 18.3125 18.015625 
Q 18.3125 11.328125 20.140625 9.421875 
Q 21.96875 7.515625 27.59375 7.515625 
L 36.8125 7.515625 
L 36.8125 0 
L 27.59375 0 
Q 17.1875 0 13.234375 3.875 
Q 9.28125 7.765625 9.28125 18.015625 
L 9.28125 47.703125 
L 2.6875 47.703125 
L 2.6875 54.6875 
L 9.28125 54.6875 
L 9.28125 70.21875 
z
" id="DejaVuSans-74"/>
      <path d="M 13.09375 38.1875 
L 33.796875 38.1875 
L 33.796875 32.625 
L 4.59375 32.625 
L 4.59375 37.984375 
Q 6.25 39.5 9.328125 42.234375 
Q 26.125 57.125 26.125 61.71875 
Q 26.125 64.9375 23.578125 66.90625 
Q 21.046875 68.890625 16.890625 68.890625 
Q 14.359375 68.890625 11.375 68.03125 
Q 8.40625 67.1875 4.890625 65.484375 
L 4.890625 71.484375 
Q 8.640625 72.859375 11.890625 73.53125 
Q 15.140625 74.21875 17.921875 74.21875 
Q 25 74.21875 29.25 71 
Q 33.5 67.78125 33.5 62.5 
Q 33.5 55.71875 17.328125 41.84375 
Q 14.59375 39.5 13.09375 38.1875 
z
" id="DejaVuSans-b2"/>
      <path d="M 8.015625 75.875 
L 15.828125 75.875 
Q 23.140625 64.359375 26.78125 53.3125 
Q 30.421875 42.28125 30.421875 31.390625 
Q 30.421875 20.453125 26.78125 9.375 
Q 23.140625 -1.703125 15.828125 -13.1875 
L 8.015625 -13.1875 
Q 14.5 -2 17.703125 9.0625 
Q 20.90625 20.125 20.90625 31.390625 
Q 20.90625 42.671875 17.703125 53.65625 
Q 14.5 64.65625 8.015625 75.875 
z
" id="DejaVuSans-29"/>
     </defs>
     <g transform="translate(253.021406 333.0325)scale(0.16 -0.16)">
      <use xlink:href="#DejaVuSans-46"/>
      <use x="57.519531" xlink:href="#DejaVuSans-6c"/>
      <use x="85.302734" xlink:href="#DejaVuSans-6f"/>
      <use x="146.484375" xlink:href="#DejaVuSans-6f"/>
      <use x="207.666016" xlink:href="#DejaVuSans-72"/>
      <use x="248.779297" xlink:href="#DejaVuSans-20"/>
      <use x="280.566406" xlink:href="#DejaVuSans-61"/>
      <use x="341.845703" xlink:href="#DejaVuSans-72"/>
      <use x="382.927734" xlink:href="#DejaVuSans-65"/>
      <use x="444.451172" xlink:href="#DejaVuSans-61"/>
      <use x="505.730469" xlink:href="#DejaVuSans-20"/>
      <use x="537.517578" xlink:href="#DejaVuSans-28"/>
      <use x="576.53125" xlink:href="#DejaVuSans-66"/>
      <use x="611.720703" xlink:href="#DejaVuSans-74"/>
      <use x="650.929688" xlink:href="#DejaVuSans-b2"/>
      <use x="691.017578" xlink:href="#DejaVuSans-29"/>
     </g>
    </g>
   </g>
   <g id="matplotlib.axis_2">
    <g id="ytick_1">
     <g id="line2d_19">
      <defs>
       <path d="M 0 0 
L -3.5 0 
" id="mca69f5c89d" style="stroke:#000000;stroke-width:0.8;"/>
      </defs>
      <g>
       <use style="stroke:#000000;stroke-width:0.8;" x="88.223906" xlink:href="#mca69f5c89d" y="284.287065"/>
      </g>
     </g>
     <g id="text_11">
      <!-- Meadow Village -->
      <defs>
       <path d="M 9.8125 72.90625 
L 24.515625 72.90625 
L 43.109375 23.296875 
L 61.8125 72.90625 
L 76.515625 72.90625 
L 76.515625 0 
L 66.890625 0 
L 66.890625 64.015625 
L 48.09375 14.015625 
L 38.1875 14.015625 
L 19.390625 64.015625 
L 19.390625 0 
L 9.8125 0 
z
" id="DejaVuSans-4d"/>
       <path d="M 45.40625 46.390625 
L 45.40625 75.984375 
L 54.390625 75.984375 
L 54.390625 0 
L 45.40625 0 
L 45.40625 8.203125 
Q 42.578125 3.328125 38.25 0.953125 
Q 33.9375 -1.421875 27.875 -1.421875 
Q 17.96875 -1.421875 11.734375 6.484375 
Q 5.515625 14.40625 5.515625 27.296875 
Q 5.515625 40.1875 11.734375 48.09375 
Q 17.96875 56 27.875 56 
Q 33.9375 56 38.25 53.625 
Q 42.578125 51.265625 45.40625 46.390625 
z
M 14.796875 27.296875 
Q 14.796875 17.390625 18.875 11.75 
Q 22.953125 6.109375 30.078125 6.109375 
Q 37.203125 6.109375 41.296875 11.75 
Q 45.40625 17.390625 45.40625 27.296875 
Q 45.40625 37.203125 41.296875 42.84375 
Q 37.203125 48.484375 30.078125 48.484375 
Q 22.953125 48.484375 18.875 42.84375 
Q 14.796875 37.203125 14.796875 27.296875 
z
" id="DejaVuSans-64"/>
       <path d="M 4.203125 54.6875 
L 13.1875 54.6875 
L 24.421875 12.015625 
L 35.59375 54.6875 
L 46.1875 54.6875 
L 57.421875 12.015625 
L 68.609375 54.6875 
L 77.59375 54.6875 
L 63.28125 0 
L 52.6875 0 
L 40.921875 44.828125 
L 29.109375 0 
L 18.5 0 
z
" id="DejaVuSans-77"/>
       <path d="M 28.609375 0 
L 0.78125 72.90625 
L 11.078125 72.90625 
L 34.1875 11.53125 
L 57.328125 72.90625 
L 67.578125 72.90625 
L 39.796875 0 
z
" id="DejaVuSans-56"/>
       <path d="M 9.421875 54.6875 
L 18.40625 54.6875 
L 18.40625 0 
L 9.421875 0 
z
M 9.421875 75.984375 
L 18.40625 75.984375 
L 18.40625 64.59375 
L 9.421875 64.59375 
z
" id="DejaVuSans-69"/>
       <path d="M 45.40625 27.984375 
Q 45.40625 37.75 41.375 43.109375 
Q 37.359375 48.484375 30.078125 48.484375 
Q 22.859375 48.484375 18.828125 43.109375 
Q 14.796875 37.75 14.796875 27.984375 
Q 14.796875 18.265625 18.828125 12.890625 
Q 22.859375 7.515625 30.078125 7.515625 
Q 37.359375 7.515625 41.375 12.890625 
Q 45.40625 18.265625 45.40625 27.984375 
z
M 54.390625 6.78125 
Q 54.390625 -7.171875 48.1875 -13.984375 
Q 42 -20.796875 29.203125 -20.796875 
Q 24.46875 -20.796875 20.265625 -20.09375 
Q 16.0625 -19.390625 12.109375 -17.921875 
L 12.109375 -9.1875 
Q 16.0625 -11.328125 19.921875 -12.34375 
Q 23.78125 -13.375 27.78125 -13.375 
Q 36.625 -13.375 41.015625 -8.765625 
Q 45.40625 -4.15625 45.40625 5.171875 
L 45.40625 9.625 
Q 42.625 4.78125 38.28125 2.390625 
Q 33.9375 0 27.875 0 
Q 17.828125 0 11.671875 7.65625 
Q 5.515625 15.328125 5.515625 27.984375 
Q 5.515625 40.671875 11.671875 48.328125 
Q 17.828125 56 27.875 56 
Q 33.9375 56 38.28125 53.609375 
Q 42.625 51.21875 45.40625 46.390625 
L 45.40625 54.6875 
L 54.390625 54.6875 
z
" id="DejaVuSans-67"/>
      </defs>
      <g transform="translate(26.249844 286.946518)scale(0.07 -0.07)">
       <use xlink:href="#DejaVuSans-4d"/>
       <use x="86.279297" xlink:href="#DejaVuSans-65"/>
       <use x="147.802734" xlink:href="#DejaVuSans-61"/>
       <use x="209.082031" xlink:href="#DejaVuSans-64"/>
       <use x="272.558594" xlink:href="#DejaVuSans-6f"/>
       <use x="333.740234" xlink:href="#DejaVuSans-77"/>
       <use x="415.527344" xlink:href="#DejaVuSans-20"/>
       <use x="447.314453" xlink:href="#DejaVuSans-56"/>
       <use x="515.691406" xlink:href="#DejaVuSans-69"/>
       <use x="543.474609" xlink:href="#DejaVuSans-6c"/>
       <use x="571.257812" xlink:href="#DejaVuSans-6c"/>
       <use x="599.041016" xlink:href="#DejaVuSans-61"/>
       <use x="660.320312" xlink:href="#DejaVuSans-67"/>
       <use x="723.796875" xlink:href="#DejaVuSans-65"/>
      </g>
     </g>
    </g>
    <g id="ytick_2">
     <g id="line2d_20">
      <g>
       <use style="stroke:#000000;stroke-width:0.8;" x="88.223906" xlink:href="#mca69f5c89d" y="275.398902"/>
      </g>
     </g>
     <g id="text_12">
      <!-- Iowa DOT &amp; Railroad -->
      <defs>
       <path d="M 9.8125 72.90625 
L 19.671875 72.90625 
L 19.671875 0 
L 9.8125 0 
z
" id="DejaVuSans-49"/>
       <path d="M 19.671875 64.796875 
L 19.671875 8.109375 
L 31.59375 8.109375 
Q 46.6875 8.109375 53.6875 14.9375 
Q 60.6875 21.78125 60.6875 36.53125 
Q 60.6875 51.171875 53.6875 57.984375 
Q 46.6875 64.796875 31.59375 64.796875 
z
M 9.8125 72.90625 
L 30.078125 72.90625 
Q 51.265625 72.90625 61.171875 64.09375 
Q 71.09375 55.28125 71.09375 36.53125 
Q 71.09375 17.671875 61.125 8.828125 
Q 51.171875 0 30.078125 0 
L 9.8125 0 
z
" id="DejaVuSans-44"/>
       <path d="M 39.40625 66.21875 
Q 28.65625 66.21875 22.328125 58.203125 
Q 16.015625 50.203125 16.015625 36.375 
Q 16.015625 22.609375 22.328125 14.59375 
Q 28.65625 6.59375 39.40625 6.59375 
Q 50.140625 6.59375 56.421875 14.59375 
Q 62.703125 22.609375 62.703125 36.375 
Q 62.703125 50.203125 56.421875 58.203125 
Q 50.140625 66.21875 39.40625 66.21875 
z
M 39.40625 74.21875 
Q 54.734375 74.21875 63.90625 63.9375 
Q 73.09375 53.65625 73.09375 36.375 
Q 73.09375 19.140625 63.90625 8.859375 
Q 54.734375 -1.421875 39.40625 -1.421875 
Q 24.03125 -1.421875 14.8125 8.828125 
Q 5.609375 19.09375 5.609375 36.375 
Q 5.609375 53.65625 14.8125 63.9375 
Q 24.03125 74.21875 39.40625 74.21875 
z
" id="DejaVuSans-4f"/>
       <path d="M -0.296875 72.90625 
L 61.375 72.90625 
L 61.375 64.59375 
L 35.5 64.59375 
L 35.5 0 
L 25.59375 0 
L 25.59375 64.59375 
L -0.296875 64.59375 
z
" id="DejaVuSans-54"/>
       <path d="M 24.3125 39.203125 
Q 19.875 35.25 17.796875 31.3125 
Q 15.71875 27.390625 15.71875 23.09375 
Q 15.71875 15.96875 20.890625 11.234375 
Q 26.078125 6.5 33.890625 6.5 
Q 38.53125 6.5 42.578125 8.03125 
Q 46.625 9.578125 50.203125 12.703125 
z
M 31.203125 44.671875 
L 56 19.28125 
Q 58.890625 23.640625 60.5 28.59375 
Q 62.109375 33.546875 62.40625 39.109375 
L 71.484375 39.109375 
Q 70.90625 32.671875 68.359375 26.359375 
Q 65.828125 20.0625 61.28125 13.921875 
L 74.90625 0 
L 62.59375 0 
L 55.609375 7.171875 
Q 50.53125 2.828125 44.96875 0.703125 
Q 39.40625 -1.421875 33.015625 -1.421875 
Q 21.234375 -1.421875 13.765625 5.296875 
Q 6.296875 12.015625 6.296875 22.515625 
Q 6.296875 28.765625 9.5625 34.25 
Q 12.84375 39.75 19.390625 44.578125 
Q 17.046875 47.65625 15.8125 50.703125 
Q 14.59375 53.765625 14.59375 56.6875 
Q 14.59375 64.59375 20.015625 69.40625 
Q 25.4375 74.21875 34.421875 74.21875 
Q 38.484375 74.21875 42.5 73.34375 
Q 46.53125 72.46875 50.6875 70.703125 
L 50.6875 61.8125 
Q 46.4375 64.109375 42.578125 65.296875 
Q 38.71875 66.5 35.40625 66.5 
Q 30.28125 66.5 27.078125 63.78125 
Q 23.875 61.078125 23.875 56.78125 
Q 23.875 54.296875 25.3125 51.78125 
Q 26.765625 49.265625 31.203125 44.671875 
z
" id="DejaVuSans-26"/>
       <path d="M 44.390625 34.1875 
Q 47.5625 33.109375 50.5625 29.59375 
Q 53.5625 26.078125 56.59375 19.921875 
L 66.609375 0 
L 56 0 
L 46.6875 18.703125 
Q 43.0625 26.03125 39.671875 28.421875 
Q 36.28125 30.8125 30.421875 30.8125 
L 19.671875 30.8125 
L 19.671875 0 
L 9.8125 0 
L 9.8125 72.90625 
L 32.078125 72.90625 
Q 44.578125 72.90625 50.734375 67.671875 
Q 56.890625 62.453125 56.890625 51.90625 
Q 56.890625 45.015625 53.6875 40.46875 
Q 50.484375 35.9375 44.390625 34.1875 
z
M 19.671875 64.796875 
L 19.671875 38.921875 
L 32.078125 38.921875 
Q 39.203125 38.921875 42.84375 42.21875 
Q 46.484375 45.515625 46.484375 51.90625 
Q 46.484375 58.296875 42.84375 61.546875 
Q 39.203125 64.796875 32.078125 64.796875 
z
" id="DejaVuSans-52"/>
      </defs>
      <g transform="translate(8.619688 278.058356)scale(0.07 -0.07)">
       <use xlink:href="#DejaVuSans-49"/>
       <use x="29.492188" xlink:href="#DejaVuSans-6f"/>
       <use x="90.673828" xlink:href="#DejaVuSans-77"/>
       <use x="172.460938" xlink:href="#DejaVuSans-61"/>
       <use x="233.740234" xlink:href="#DejaVuSans-20"/>
       <use x="265.527344" xlink:href="#DejaVuSans-44"/>
       <use x="342.529297" xlink:href="#DejaVuSans-4f"/>
       <use x="421.240234" xlink:href="#DejaVuSans-54"/>
       <use x="482.324219" xlink:href="#DejaVuSans-20"/>
       <use x="514.111328" xlink:href="#DejaVuSans-26"/>
       <use x="592.089844" xlink:href="#DejaVuSans-20"/>
       <use x="623.876953" xlink:href="#DejaVuSans-52"/>
       <use x="693.328125" xlink:href="#DejaVuSans-61"/>
       <use x="754.607422" xlink:href="#DejaVuSans-69"/>
       <use x="782.390625" xlink:href="#DejaVuSans-6c"/>
       <use x="810.173828" xlink:href="#DejaVuSans-72"/>
       <use x="851.255859" xlink:href="#DejaVuSans-6f"/>
       <use x="912.4375" xlink:href="#DejaVuSans-61"/>
       <use x="973.716797" xlink:href="#DejaVuSans-64"/>
      </g>
     </g>
    </g>
    <g id="ytick_3">
     <g id="line2d_21">
      <g>
       <use style="stroke:#000000;stroke-width:0.8;" x="88.223906" xlink:href="#mca69f5c89d" y="266.51074"/>
      </g>
     </g>
     <g id="text_13">
      <!-- Briardale -->
      <defs>
       <path d="M 19.671875 34.8125 
L 19.671875 8.109375 
L 35.5 8.109375 
Q 43.453125 8.109375 47.28125 11.40625 
Q 51.125 14.703125 51.125 21.484375 
Q 51.125 28.328125 47.28125 31.5625 
Q 43.453125 34.8125 35.5 34.8125 
z
M 19.671875 64.796875 
L 19.671875 42.828125 
L 34.28125 42.828125 
Q 41.5 42.828125 45.03125 45.53125 
Q 48.578125 48.25 48.578125 53.8125 
Q 48.578125 59.328125 45.03125 62.0625 
Q 41.5 64.796875 34.28125 64.796875 
z
M 9.8125 72.90625 
L 35.015625 72.90625 
Q 46.296875 72.90625 52.390625 68.21875 
Q 58.5 63.53125 58.5 54.890625 
Q 58.5 48.1875 55.375 44.234375 
Q 52.25 40.28125 46.1875 39.3125 
Q 53.46875 37.75 57.5 32.78125 
Q 61.53125 27.828125 61.53125 20.40625 
Q 61.53125 10.640625 54.890625 5.3125 
Q 48.25 0 35.984375 0 
L 9.8125 0 
z
" id="DejaVuSans-42"/>
      </defs>
      <g transform="translate(49.447188 269.170193)scale(0.07 -0.07)">
       <use xlink:href="#DejaVuSans-42"/>
       <use x="68.603516" xlink:href="#DejaVuSans-72"/>
       <use x="109.716797" xlink:href="#DejaVuSans-69"/>
       <use x="137.5" xlink:href="#DejaVuSans-61"/>
       <use x="198.779297" xlink:href="#DejaVuSans-72"/>
       <use x="239.876953" xlink:href="#DejaVuSans-64"/>
       <use x="303.353516" xlink:href="#DejaVuSans-61"/>
       <use x="364.632812" xlink:href="#DejaVuSans-6c"/>
       <use x="392.416016" xlink:href="#DejaVuSans-65"/>
      </g>
     </g>
    </g>
    <g id="ytick_4">
     <g id="line2d_22">
      <g>
       <use style="stroke:#000000;stroke-width:0.8;" x="88.223906" xlink:href="#mca69f5c89d" y="257.622578"/>
      </g>
     </g>
     <g id="text_14">
      <!-- Old Town -->
      <defs>
       <path d="M 54.890625 33.015625 
L 54.890625 0 
L 45.90625 0 
L 45.90625 32.71875 
Q 45.90625 40.484375 42.875 44.328125 
Q 39.84375 48.1875 33.796875 48.1875 
Q 26.515625 48.1875 22.3125 43.546875 
Q 18.109375 38.921875 18.109375 30.90625 
L 18.109375 0 
L 9.078125 0 
L 9.078125 54.6875 
L 18.109375 54.6875 
L 18.109375 46.1875 
Q 21.34375 51.125 25.703125 53.5625 
Q 30.078125 56 35.796875 56 
Q 45.21875 56 50.046875 50.171875 
Q 54.890625 44.34375 54.890625 33.015625 
z
" id="DejaVuSans-6e"/>
      </defs>
      <g transform="translate(48.399375 260.282031)scale(0.07 -0.07)">
       <use xlink:href="#DejaVuSans-4f"/>
       <use x="78.710938" xlink:href="#DejaVuSans-6c"/>
       <use x="106.494141" xlink:href="#DejaVuSans-64"/>
       <use x="169.970703" xlink:href="#DejaVuSans-20"/>
       <use x="201.757812" xlink:href="#DejaVuSans-54"/>
       <use x="262.576172" xlink:href="#DejaVuSans-6f"/>
       <use x="323.757812" xlink:href="#DejaVuSans-77"/>
       <use x="405.544922" xlink:href="#DejaVuSans-6e"/>
      </g>
     </g>
    </g>
    <g id="ytick_5">
     <g id="line2d_23">
      <g>
       <use style="stroke:#000000;stroke-width:0.8;" x="88.223906" xlink:href="#mca69f5c89d" y="248.734416"/>
      </g>
     </g>
     <g id="text_15">
      <!-- Brookside -->
      <defs>
       <path d="M 9.078125 75.984375 
L 18.109375 75.984375 
L 18.109375 31.109375 
L 44.921875 54.6875 
L 56.390625 54.6875 
L 27.390625 29.109375 
L 57.625 0 
L 45.90625 0 
L 18.109375 26.703125 
L 18.109375 0 
L 9.078125 0 
z
" id="DejaVuSans-6b"/>
       <path d="M 44.28125 53.078125 
L 44.28125 44.578125 
Q 40.484375 46.53125 36.375 47.5 
Q 32.28125 48.484375 27.875 48.484375 
Q 21.1875 48.484375 17.84375 46.4375 
Q 14.5 44.390625 14.5 40.28125 
Q 14.5 37.15625 16.890625 35.375 
Q 19.28125 33.59375 26.515625 31.984375 
L 29.59375 31.296875 
Q 39.15625 29.25 43.1875 25.515625 
Q 47.21875 21.78125 47.21875 15.09375 
Q 47.21875 7.46875 41.1875 3.015625 
Q 35.15625 -1.421875 24.609375 -1.421875 
Q 20.21875 -1.421875 15.453125 -0.5625 
Q 10.6875 0.296875 5.421875 2 
L 5.421875 11.28125 
Q 10.40625 8.6875 15.234375 7.390625 
Q 20.0625 6.109375 24.8125 6.109375 
Q 31.15625 6.109375 34.5625 8.28125 
Q 37.984375 10.453125 37.984375 14.40625 
Q 37.984375 18.0625 35.515625 20.015625 
Q 33.0625 21.96875 24.703125 23.78125 
L 21.578125 24.515625 
Q 13.234375 26.265625 9.515625 29.90625 
Q 5.8125 33.546875 5.8125 39.890625 
Q 5.8125 47.609375 11.28125 51.796875 
Q 16.75 56 26.8125 56 
Q 31.78125 56 36.171875 55.265625 
Q 40.578125 54.546875 44.28125 53.078125 
z
" id="DejaVuSans-73"/>
      </defs>
      <g transform="translate(46.58375 251.393869)scale(0.07 -0.07)">
       <use xlink:href="#DejaVuSans-42"/>
       <use x="68.603516" xlink:href="#DejaVuSans-72"/>
       <use x="109.685547" xlink:href="#DejaVuSans-6f"/>
       <use x="170.867188" xlink:href="#DejaVuSans-6f"/>
       <use x="232.048828" xlink:href="#DejaVuSans-6b"/>
       <use x="289.958984" xlink:href="#DejaVuSans-73"/>
       <use x="342.058594" xlink:href="#DejaVuSans-69"/>
       <use x="369.841797" xlink:href="#DejaVuSans-64"/>
       <use x="433.318359" xlink:href="#DejaVuSans-65"/>
      </g>
     </g>
    </g>
    <g id="ytick_6">
     <g id="line2d_24">
      <g>
       <use style="stroke:#000000;stroke-width:0.8;" x="88.223906" xlink:href="#mca69f5c89d" y="239.846254"/>
      </g>
     </g>
     <g id="text_16">
      <!-- Edwards -->
      <defs>
       <path d="M 9.8125 72.90625 
L 55.90625 72.90625 
L 55.90625 64.59375 
L 19.671875 64.59375 
L 19.671875 43.015625 
L 54.390625 43.015625 
L 54.390625 34.71875 
L 19.671875 34.71875 
L 19.671875 8.296875 
L 56.78125 8.296875 
L 56.78125 0 
L 9.8125 0 
z
" id="DejaVuSans-45"/>
      </defs>
      <g transform="translate(51.375469 242.505707)scale(0.07 -0.07)">
       <use xlink:href="#DejaVuSans-45"/>
       <use x="63.183594" xlink:href="#DejaVuSans-64"/>
       <use x="126.660156" xlink:href="#DejaVuSans-77"/>
       <use x="208.447266" xlink:href="#DejaVuSans-61"/>
       <use x="269.726562" xlink:href="#DejaVuSans-72"/>
       <use x="310.824219" xlink:href="#DejaVuSans-64"/>
       <use x="374.300781" xlink:href="#DejaVuSans-73"/>
      </g>
     </g>
    </g>
    <g id="ytick_7">
     <g id="line2d_25">
      <g>
       <use style="stroke:#000000;stroke-width:0.8;" x="88.223906" xlink:href="#mca69f5c89d" y="230.958091"/>
      </g>
     </g>
     <g id="text_17">
      <!-- S. &amp; W. of Iowa State -->
      <defs>
       <path d="M 53.515625 70.515625 
L 53.515625 60.890625 
Q 47.90625 63.578125 42.921875 64.890625 
Q 37.9375 66.21875 33.296875 66.21875 
Q 25.25 66.21875 20.875 63.09375 
Q 16.5 59.96875 16.5 54.203125 
Q 16.5 49.359375 19.40625 46.890625 
Q 22.3125 44.4375 30.421875 42.921875 
L 36.375 41.703125 
Q 47.40625 39.59375 52.65625 34.296875 
Q 57.90625 29 57.90625 20.125 
Q 57.90625 9.515625 50.796875 4.046875 
Q 43.703125 -1.421875 29.984375 -1.421875 
Q 24.8125 -1.421875 18.96875 -0.25 
Q 13.140625 0.921875 6.890625 3.21875 
L 6.890625 13.375 
Q 12.890625 10.015625 18.65625 8.296875 
Q 24.421875 6.59375 29.984375 6.59375 
Q 38.421875 6.59375 43.015625 9.90625 
Q 47.609375 13.234375 47.609375 19.390625 
Q 47.609375 24.75 44.3125 27.78125 
Q 41.015625 30.8125 33.5 32.328125 
L 27.484375 33.5 
Q 16.453125 35.6875 11.515625 40.375 
Q 6.59375 45.0625 6.59375 53.421875 
Q 6.59375 63.09375 13.40625 68.65625 
Q 20.21875 74.21875 32.171875 74.21875 
Q 37.3125 74.21875 42.625 73.28125 
Q 47.953125 72.359375 53.515625 70.515625 
z
" id="DejaVuSans-53"/>
       <path d="M 10.6875 12.40625 
L 21 12.40625 
L 21 0 
L 10.6875 0 
z
" id="DejaVuSans-2e"/>
       <path d="M 3.328125 72.90625 
L 13.28125 72.90625 
L 28.609375 11.28125 
L 43.890625 72.90625 
L 54.984375 72.90625 
L 70.3125 11.28125 
L 85.59375 72.90625 
L 95.609375 72.90625 
L 77.296875 0 
L 64.890625 0 
L 49.515625 63.28125 
L 33.984375 0 
L 21.578125 0 
z
" id="DejaVuSans-57"/>
      </defs>
      <g transform="translate(7.2 233.617545)scale(0.07 -0.07)">
       <use xlink:href="#DejaVuSans-53"/>
       <use x="63.476562" xlink:href="#DejaVuSans-2e"/>
       <use x="95.263672" xlink:href="#DejaVuSans-20"/>
       <use x="127.050781" xlink:href="#DejaVuSans-26"/>
       <use x="205.029297" xlink:href="#DejaVuSans-20"/>
       <use x="236.816406" xlink:href="#DejaVuSans-57"/>
       <use x="335.521484" xlink:href="#DejaVuSans-2e"/>
       <use x="367.308594" xlink:href="#DejaVuSans-20"/>
       <use x="399.095703" xlink:href="#DejaVuSans-6f"/>
       <use x="460.277344" xlink:href="#DejaVuSans-66"/>
       <use x="495.482422" xlink:href="#DejaVuSans-20"/>
       <use x="527.269531" xlink:href="#DejaVuSans-49"/>
       <use x="556.761719" xlink:href="#DejaVuSans-6f"/>
       <use x="617.943359" xlink:href="#DejaVuSans-77"/>
       <use x="699.730469" xlink:href="#DejaVuSans-61"/>
       <use x="761.009766" xlink:href="#DejaVuSans-20"/>
       <use x="792.796875" xlink:href="#DejaVuSans-53"/>
       <use x="856.273438" xlink:href="#DejaVuSans-74"/>
       <use x="895.482422" xlink:href="#DejaVuSans-61"/>
       <use x="956.761719" xlink:href="#DejaVuSans-74"/>
       <use x="995.970703" xlink:href="#DejaVuSans-65"/>
      </g>
     </g>
    </g>
    <g id="ytick_8">
     <g id="line2d_26">
      <g>
       <use style="stroke:#000000;stroke-width:0.8;" x="88.223906" xlink:href="#mca69f5c89d" y="222.069929"/>
      </g>
     </g>
     <g id="text_18">
      <!-- Landmark -->
      <defs>
       <path d="M 9.8125 72.90625 
L 19.671875 72.90625 
L 19.671875 8.296875 
L 55.171875 8.296875 
L 55.171875 0 
L 9.8125 0 
z
" id="DejaVuSans-4c"/>
       <path d="M 52 44.1875 
Q 55.375 50.25 60.0625 53.125 
Q 64.75 56 71.09375 56 
Q 79.640625 56 84.28125 50.015625 
Q 88.921875 44.046875 88.921875 33.015625 
L 88.921875 0 
L 79.890625 0 
L 79.890625 32.71875 
Q 79.890625 40.578125 77.09375 44.375 
Q 74.3125 48.1875 68.609375 48.1875 
Q 61.625 48.1875 57.5625 43.546875 
Q 53.515625 38.921875 53.515625 30.90625 
L 53.515625 0 
L 44.484375 0 
L 44.484375 32.71875 
Q 44.484375 40.625 41.703125 44.40625 
Q 38.921875 48.1875 33.109375 48.1875 
Q 26.21875 48.1875 22.15625 43.53125 
Q 18.109375 38.875 18.109375 30.90625 
L 18.109375 0 
L 9.078125 0 
L 9.078125 54.6875 
L 18.109375 54.6875 
L 18.109375 46.1875 
Q 21.1875 51.21875 25.484375 53.609375 
Q 29.78125 56 35.6875 56 
Q 41.65625 56 45.828125 52.96875 
Q 50 49.953125 52 44.1875 
z
" id="DejaVuSans-6d"/>
      </defs>
      <g transform="translate(46.114531 224.729382)scale(0.07 -0.07)">
       <use xlink:href="#DejaVuSans-4c"/>
       <use x="55.712891" xlink:href="#DejaVuSans-61"/>
       <use x="116.992188" xlink:href="#DejaVuSans-6e"/>
       <use x="180.371094" xlink:href="#DejaVuSans-64"/>
       <use x="243.847656" xlink:href="#DejaVuSans-6d"/>
       <use x="341.259766" xlink:href="#DejaVuSans-61"/>
       <use x="402.539062" xlink:href="#DejaVuSans-72"/>
       <use x="443.652344" xlink:href="#DejaVuSans-6b"/>
      </g>
     </g>
    </g>
    <g id="ytick_9">
     <g id="line2d_27">
      <g>
       <use style="stroke:#000000;stroke-width:0.8;" x="88.223906" xlink:href="#mca69f5c89d" y="213.181767"/>
      </g>
     </g>
     <g id="text_19">
      <!-- Sawyer -->
      <defs>
       <path d="M 32.171875 -5.078125 
Q 28.375 -14.84375 24.75 -17.8125 
Q 21.140625 -20.796875 15.09375 -20.796875 
L 7.90625 -20.796875 
L 7.90625 -13.28125 
L 13.1875 -13.28125 
Q 16.890625 -13.28125 18.9375 -11.515625 
Q 21 -9.765625 23.484375 -3.21875 
L 25.09375 0.875 
L 2.984375 54.6875 
L 12.5 54.6875 
L 29.59375 11.921875 
L 46.6875 54.6875 
L 56.203125 54.6875 
z
" id="DejaVuSans-79"/>
      </defs>
      <g transform="translate(55.437656 215.84122)scale(0.07 -0.07)">
       <use xlink:href="#DejaVuSans-53"/>
       <use x="63.476562" xlink:href="#DejaVuSans-61"/>
       <use x="124.755859" xlink:href="#DejaVuSans-77"/>
       <use x="206.542969" xlink:href="#DejaVuSans-79"/>
       <use x="265.722656" xlink:href="#DejaVuSans-65"/>
       <use x="327.246094" xlink:href="#DejaVuSans-72"/>
      </g>
     </g>
    </g>
    <g id="ytick_10">
     <g id="line2d_28">
      <g>
       <use style="stroke:#000000;stroke-width:0.8;" x="88.223906" xlink:href="#mca69f5c89d" y="204.293605"/>
      </g>
     </g>
     <g id="text_20">
      <!-- Northpark Villa -->
      <defs>
       <path d="M 9.8125 72.90625 
L 23.09375 72.90625 
L 55.421875 11.921875 
L 55.421875 72.90625 
L 64.984375 72.90625 
L 64.984375 0 
L 51.703125 0 
L 19.390625 60.984375 
L 19.390625 0 
L 9.8125 0 
z
" id="DejaVuSans-4e"/>
       <path d="M 54.890625 33.015625 
L 54.890625 0 
L 45.90625 0 
L 45.90625 32.71875 
Q 45.90625 40.484375 42.875 44.328125 
Q 39.84375 48.1875 33.796875 48.1875 
Q 26.515625 48.1875 22.3125 43.546875 
Q 18.109375 38.921875 18.109375 30.90625 
L 18.109375 0 
L 9.078125 0 
L 9.078125 75.984375 
L 18.109375 75.984375 
L 18.109375 46.1875 
Q 21.34375 51.125 25.703125 53.5625 
Q 30.078125 56 35.796875 56 
Q 45.21875 56 50.046875 50.171875 
Q 54.890625 44.34375 54.890625 33.015625 
z
" id="DejaVuSans-68"/>
       <path d="M 18.109375 8.203125 
L 18.109375 -20.796875 
L 9.078125 -20.796875 
L 9.078125 54.6875 
L 18.109375 54.6875 
L 18.109375 46.390625 
Q 20.953125 51.265625 25.265625 53.625 
Q 29.59375 56 35.59375 56 
Q 45.5625 56 51.78125 48.09375 
Q 58.015625 40.1875 58.015625 27.296875 
Q 58.015625 14.40625 51.78125 6.484375 
Q 45.5625 -1.421875 35.59375 -1.421875 
Q 29.59375 -1.421875 25.265625 0.953125 
Q 20.953125 3.328125 18.109375 8.203125 
z
M 48.6875 27.296875 
Q 48.6875 37.203125 44.609375 42.84375 
Q 40.53125 48.484375 33.40625 48.484375 
Q 26.265625 48.484375 22.1875 42.84375 
Q 18.109375 37.203125 18.109375 27.296875 
Q 18.109375 17.390625 22.1875 11.75 
Q 26.265625 6.109375 33.40625 6.109375 
Q 40.53125 6.109375 44.609375 11.75 
Q 48.6875 17.390625 48.6875 27.296875 
z
" id="DejaVuSans-70"/>
      </defs>
      <g transform="translate(28.846406 206.953058)scale(0.07 -0.07)">
       <use xlink:href="#DejaVuSans-4e"/>
       <use x="74.804688" xlink:href="#DejaVuSans-6f"/>
       <use x="135.986328" xlink:href="#DejaVuSans-72"/>
       <use x="177.099609" xlink:href="#DejaVuSans-74"/>
       <use x="216.308594" xlink:href="#DejaVuSans-68"/>
       <use x="279.6875" xlink:href="#DejaVuSans-70"/>
       <use x="343.164062" xlink:href="#DejaVuSans-61"/>
       <use x="404.443359" xlink:href="#DejaVuSans-72"/>
       <use x="445.556641" xlink:href="#DejaVuSans-6b"/>
       <use x="503.466797" xlink:href="#DejaVuSans-20"/>
       <use x="535.253906" xlink:href="#DejaVuSans-56"/>
       <use x="603.630859" xlink:href="#DejaVuSans-69"/>
       <use x="631.414062" xlink:href="#DejaVuSans-6c"/>
       <use x="659.197266" xlink:href="#DejaVuSans-6c"/>
       <use x="686.980469" xlink:href="#DejaVuSans-61"/>
      </g>
     </g>
    </g>
    <g id="ytick_11">
     <g id="line2d_29">
      <g>
       <use style="stroke:#000000;stroke-width:0.8;" x="88.223906" xlink:href="#mca69f5c89d" y="195.405443"/>
      </g>
     </g>
     <g id="text_21">
      <!-- Bluestem -->
      <defs>
       <path d="M 8.5 21.578125 
L 8.5 54.6875 
L 17.484375 54.6875 
L 17.484375 21.921875 
Q 17.484375 14.15625 20.5 10.265625 
Q 23.53125 6.390625 29.59375 6.390625 
Q 36.859375 6.390625 41.078125 11.03125 
Q 45.3125 15.671875 45.3125 23.6875 
L 45.3125 54.6875 
L 54.296875 54.6875 
L 54.296875 0 
L 45.3125 0 
L 45.3125 8.40625 
Q 42.046875 3.421875 37.71875 1 
Q 33.40625 -1.421875 27.6875 -1.421875 
Q 18.265625 -1.421875 13.375 4.4375 
Q 8.5 10.296875 8.5 21.578125 
z
M 31.109375 56 
z
" id="DejaVuSans-75"/>
      </defs>
      <g transform="translate(48.216719 198.064896)scale(0.07 -0.07)">
       <use xlink:href="#DejaVuSans-42"/>
       <use x="68.603516" xlink:href="#DejaVuSans-6c"/>
       <use x="96.386719" xlink:href="#DejaVuSans-75"/>
       <use x="159.765625" xlink:href="#DejaVuSans-65"/>
       <use x="221.289062" xlink:href="#DejaVuSans-73"/>
       <use x="273.388672" xlink:href="#DejaVuSans-74"/>
       <use x="312.597656" xlink:href="#DejaVuSans-65"/>
       <use x="374.121094" xlink:href="#DejaVuSans-6d"/>
      </g>
     </g>
    </g>
    <g id="ytick_12">
     <g id="line2d_30">
      <g>
       <use style="stroke:#000000;stroke-width:0.8;" x="88.223906" xlink:href="#mca69f5c89d" y="186.51728"/>
      </g>
     </g>
     <g id="text_22">
      <!-- North Ames -->
      <defs>
       <path d="M 34.1875 63.1875 
L 20.796875 26.90625 
L 47.609375 26.90625 
z
M 28.609375 72.90625 
L 39.796875 72.90625 
L 67.578125 0 
L 57.328125 0 
L 50.6875 18.703125 
L 17.828125 18.703125 
L 11.1875 0 
L 0.78125 0 
z
" id="DejaVuSans-41"/>
      </defs>
      <g transform="translate(39.860469 189.176734)scale(0.07 -0.07)">
       <use xlink:href="#DejaVuSans-4e"/>
       <use x="74.804688" xlink:href="#DejaVuSans-6f"/>
       <use x="135.986328" xlink:href="#DejaVuSans-72"/>
       <use x="177.099609" xlink:href="#DejaVuSans-74"/>
       <use x="216.308594" xlink:href="#DejaVuSans-68"/>
       <use x="279.6875" xlink:href="#DejaVuSans-20"/>
       <use x="311.474609" xlink:href="#DejaVuSans-41"/>
       <use x="379.882812" xlink:href="#DejaVuSans-6d"/>
       <use x="477.294922" xlink:href="#DejaVuSans-65"/>
       <use x="538.818359" xlink:href="#DejaVuSans-73"/>
      </g>
     </g>
    </g>
    <g id="ytick_13">
     <g id="line2d_31">
      <g>
       <use style="stroke:#000000;stroke-width:0.8;" x="88.223906" xlink:href="#mca69f5c89d" y="177.629118"/>
      </g>
     </g>
     <g id="text_23">
      <!-- Mitchell -->
      <defs>
       <path d="M 48.78125 52.59375 
L 48.78125 44.1875 
Q 44.96875 46.296875 41.140625 47.34375 
Q 37.3125 48.390625 33.40625 48.390625 
Q 24.65625 48.390625 19.8125 42.84375 
Q 14.984375 37.3125 14.984375 27.296875 
Q 14.984375 17.28125 19.8125 11.734375 
Q 24.65625 6.203125 33.40625 6.203125 
Q 37.3125 6.203125 41.140625 7.25 
Q 44.96875 8.296875 48.78125 10.40625 
L 48.78125 2.09375 
Q 45.015625 0.34375 40.984375 -0.53125 
Q 36.96875 -1.421875 32.421875 -1.421875 
Q 20.0625 -1.421875 12.78125 6.34375 
Q 5.515625 14.109375 5.515625 27.296875 
Q 5.515625 40.671875 12.859375 48.328125 
Q 20.21875 56 33.015625 56 
Q 37.15625 56 41.109375 55.140625 
Q 45.0625 54.296875 48.78125 52.59375 
z
" id="DejaVuSans-63"/>
      </defs>
      <g transform="translate(54.013594 180.288571)scale(0.07 -0.07)">
       <use xlink:href="#DejaVuSans-4d"/>
       <use x="86.279297" xlink:href="#DejaVuSans-69"/>
       <use x="114.0625" xlink:href="#DejaVuSans-74"/>
       <use x="153.271484" xlink:href="#DejaVuSans-63"/>
       <use x="208.251953" xlink:href="#DejaVuSans-68"/>
       <use x="271.630859" xlink:href="#DejaVuSans-65"/>
       <use x="333.154297" xlink:href="#DejaVuSans-6c"/>
       <use x="360.9375" xlink:href="#DejaVuSans-6c"/>
      </g>
     </g>
    </g>
    <g id="ytick_14">
     <g id="line2d_32">
      <g>
       <use style="stroke:#000000;stroke-width:0.8;" x="88.223906" xlink:href="#mca69f5c89d" y="168.740956"/>
      </g>
     </g>
     <g id="text_24">
      <!-- Sawyer West -->
      <g transform="translate(35.599219 171.400409)scale(0.07 -0.07)">
       <use xlink:href="#DejaVuSans-53"/>
       <use x="63.476562" xlink:href="#DejaVuSans-61"/>
       <use x="124.755859" xlink:href="#DejaVuSans-77"/>
       <use x="206.542969" xlink:href="#DejaVuSans-79"/>
       <use x="265.722656" xlink:href="#DejaVuSans-65"/>
       <use x="327.246094" xlink:href="#DejaVuSans-72"/>
       <use x="368.359375" xlink:href="#DejaVuSans-20"/>
       <use x="400.146484" xlink:href="#DejaVuSans-57"/>
       <use x="498.945312" xlink:href="#DejaVuSans-65"/>
       <use x="560.46875" xlink:href="#DejaVuSans-73"/>
       <use x="612.568359" xlink:href="#DejaVuSans-74"/>
      </g>
     </g>
    </g>
    <g id="ytick_15">
     <g id="line2d_33">
      <g>
       <use style="stroke:#000000;stroke-width:0.8;" x="88.223906" xlink:href="#mca69f5c89d" y="159.852794"/>
      </g>
     </g>
     <g id="text_25">
      <!-- Greens -->
      <defs>
       <path d="M 59.515625 10.40625 
L 59.515625 29.984375 
L 43.40625 29.984375 
L 43.40625 38.09375 
L 69.28125 38.09375 
L 69.28125 6.78125 
Q 63.578125 2.734375 56.6875 0.65625 
Q 49.8125 -1.421875 42 -1.421875 
Q 24.90625 -1.421875 15.25 8.5625 
Q 5.609375 18.5625 5.609375 36.375 
Q 5.609375 54.25 15.25 64.234375 
Q 24.90625 74.21875 42 74.21875 
Q 49.125 74.21875 55.546875 72.453125 
Q 61.96875 70.703125 67.390625 67.28125 
L 67.390625 56.78125 
Q 61.921875 61.421875 55.765625 63.765625 
Q 49.609375 66.109375 42.828125 66.109375 
Q 29.4375 66.109375 22.71875 58.640625 
Q 16.015625 51.171875 16.015625 36.375 
Q 16.015625 21.625 22.71875 14.15625 
Q 29.4375 6.6875 42.828125 6.6875 
Q 48.046875 6.6875 52.140625 7.59375 
Q 56.25 8.5 59.515625 10.40625 
z
" id="DejaVuSans-47"/>
      </defs>
      <g transform="translate(56.227344 162.512247)scale(0.07 -0.07)">
       <use xlink:href="#DejaVuSans-47"/>
       <use x="77.490234" xlink:href="#DejaVuSans-72"/>
       <use x="118.572266" xlink:href="#DejaVuSans-65"/>
       <use x="180.095703" xlink:href="#DejaVuSans-65"/>
       <use x="241.619141" xlink:href="#DejaVuSans-6e"/>
       <use x="304.998047" xlink:href="#DejaVuSans-73"/>
      </g>
     </g>
    </g>
    <g id="ytick_16">
     <g id="line2d_34">
      <g>
       <use style="stroke:#000000;stroke-width:0.8;" x="88.223906" xlink:href="#mca69f5c89d" y="150.964632"/>
      </g>
     </g>
     <g id="text_26">
      <!-- Gilbert -->
      <defs>
       <path d="M 48.6875 27.296875 
Q 48.6875 37.203125 44.609375 42.84375 
Q 40.53125 48.484375 33.40625 48.484375 
Q 26.265625 48.484375 22.1875 42.84375 
Q 18.109375 37.203125 18.109375 27.296875 
Q 18.109375 17.390625 22.1875 11.75 
Q 26.265625 6.109375 33.40625 6.109375 
Q 40.53125 6.109375 44.609375 11.75 
Q 48.6875 17.390625 48.6875 27.296875 
z
M 18.109375 46.390625 
Q 20.953125 51.265625 25.265625 53.625 
Q 29.59375 56 35.59375 56 
Q 45.5625 56 51.78125 48.09375 
Q 58.015625 40.1875 58.015625 27.296875 
Q 58.015625 14.40625 51.78125 6.484375 
Q 45.5625 -1.421875 35.59375 -1.421875 
Q 29.59375 -1.421875 25.265625 0.953125 
Q 20.953125 3.328125 18.109375 8.203125 
L 18.109375 0 
L 9.078125 0 
L 9.078125 75.984375 
L 18.109375 75.984375 
z
" id="DejaVuSans-62"/>
      </defs>
      <g transform="translate(57.537656 153.624085)scale(0.07 -0.07)">
       <use xlink:href="#DejaVuSans-47"/>
       <use x="77.490234" xlink:href="#DejaVuSans-69"/>
       <use x="105.273438" xlink:href="#DejaVuSans-6c"/>
       <use x="133.056641" xlink:href="#DejaVuSans-62"/>
       <use x="196.533203" xlink:href="#DejaVuSans-65"/>
       <use x="258.056641" xlink:href="#DejaVuSans-72"/>
       <use x="299.169922" xlink:href="#DejaVuSans-74"/>
      </g>
     </g>
    </g>
    <g id="ytick_17">
     <g id="line2d_35">
      <g>
       <use style="stroke:#000000;stroke-width:0.8;" x="88.223906" xlink:href="#mca69f5c89d" y="142.07647"/>
      </g>
     </g>
     <g id="text_27">
      <!-- Northwest Ames -->
      <g transform="translate(23.437813 144.735923)scale(0.07 -0.07)">
       <use xlink:href="#DejaVuSans-4e"/>
       <use x="74.804688" xlink:href="#DejaVuSans-6f"/>
       <use x="135.986328" xlink:href="#DejaVuSans-72"/>
       <use x="177.099609" xlink:href="#DejaVuSans-74"/>
       <use x="216.308594" xlink:href="#DejaVuSans-68"/>
       <use x="279.6875" xlink:href="#DejaVuSans-77"/>
       <use x="361.474609" xlink:href="#DejaVuSans-65"/>
       <use x="422.998047" xlink:href="#DejaVuSans-73"/>
       <use x="475.097656" xlink:href="#DejaVuSans-74"/>
       <use x="514.306641" xlink:href="#DejaVuSans-20"/>
       <use x="546.09375" xlink:href="#DejaVuSans-41"/>
       <use x="614.501953" xlink:href="#DejaVuSans-6d"/>
       <use x="711.914062" xlink:href="#DejaVuSans-65"/>
       <use x="773.4375" xlink:href="#DejaVuSans-73"/>
      </g>
     </g>
    </g>
    <g id="ytick_18">
     <g id="line2d_36">
      <g>
       <use style="stroke:#000000;stroke-width:0.8;" x="88.223906" xlink:href="#mca69f5c89d" y="133.188307"/>
      </g>
     </g>
     <g id="text_28">
      <!-- Bloomington Heights -->
      <defs>
       <path d="M 9.8125 72.90625 
L 19.671875 72.90625 
L 19.671875 43.015625 
L 55.515625 43.015625 
L 55.515625 72.90625 
L 65.375 72.90625 
L 65.375 0 
L 55.515625 0 
L 55.515625 34.71875 
L 19.671875 34.71875 
L 19.671875 0 
L 9.8125 0 
z
" id="DejaVuSans-48"/>
      </defs>
      <g transform="translate(7.791719 135.84776)scale(0.07 -0.07)">
       <use xlink:href="#DejaVuSans-42"/>
       <use x="68.603516" xlink:href="#DejaVuSans-6c"/>
       <use x="96.386719" xlink:href="#DejaVuSans-6f"/>
       <use x="157.568359" xlink:href="#DejaVuSans-6f"/>
       <use x="218.75" xlink:href="#DejaVuSans-6d"/>
       <use x="316.162109" xlink:href="#DejaVuSans-69"/>
       <use x="343.945312" xlink:href="#DejaVuSans-6e"/>
       <use x="407.324219" xlink:href="#DejaVuSans-67"/>
       <use x="470.800781" xlink:href="#DejaVuSans-74"/>
       <use x="510.009766" xlink:href="#DejaVuSans-6f"/>
       <use x="571.191406" xlink:href="#DejaVuSans-6e"/>
       <use x="634.570312" xlink:href="#DejaVuSans-20"/>
       <use x="666.357422" xlink:href="#DejaVuSans-48"/>
       <use x="741.552734" xlink:href="#DejaVuSans-65"/>
       <use x="803.076172" xlink:href="#DejaVuSans-69"/>
       <use x="830.859375" xlink:href="#DejaVuSans-67"/>
       <use x="894.335938" xlink:href="#DejaVuSans-68"/>
       <use x="957.714844" xlink:href="#DejaVuSans-74"/>
       <use x="996.923828" xlink:href="#DejaVuSans-73"/>
      </g>
     </g>
    </g>
    <g id="ytick_19">
     <g id="line2d_37">
      <g>
       <use style="stroke:#000000;stroke-width:0.8;" x="88.223906" xlink:href="#mca69f5c89d" y="124.300145"/>
      </g>
     </g>
     <g id="text_29">
      <!-- College Creek -->
      <defs>
       <path d="M 64.40625 67.28125 
L 64.40625 56.890625 
Q 59.421875 61.53125 53.78125 63.8125 
Q 48.140625 66.109375 41.796875 66.109375 
Q 29.296875 66.109375 22.65625 58.46875 
Q 16.015625 50.828125 16.015625 36.375 
Q 16.015625 21.96875 22.65625 14.328125 
Q 29.296875 6.6875 41.796875 6.6875 
Q 48.140625 6.6875 53.78125 8.984375 
Q 59.421875 11.28125 64.40625 15.921875 
L 64.40625 5.609375 
Q 59.234375 2.09375 53.4375 0.328125 
Q 47.65625 -1.421875 41.21875 -1.421875 
Q 24.65625 -1.421875 15.125 8.703125 
Q 5.609375 18.84375 5.609375 36.375 
Q 5.609375 53.953125 15.125 64.078125 
Q 24.65625 74.21875 41.21875 74.21875 
Q 47.75 74.21875 53.53125 72.484375 
Q 59.328125 70.75 64.40625 67.28125 
z
" id="DejaVuSans-43"/>
      </defs>
      <g transform="translate(32.449219 126.959598)scale(0.07 -0.07)">
       <use xlink:href="#DejaVuSans-43"/>
       <use x="69.824219" xlink:href="#DejaVuSans-6f"/>
       <use x="131.005859" xlink:href="#DejaVuSans-6c"/>
       <use x="158.789062" xlink:href="#DejaVuSans-6c"/>
       <use x="186.572266" xlink:href="#DejaVuSans-65"/>
       <use x="248.095703" xlink:href="#DejaVuSans-67"/>
       <use x="311.572266" xlink:href="#DejaVuSans-65"/>
       <use x="373.095703" xlink:href="#DejaVuSans-20"/>
       <use x="404.882812" xlink:href="#DejaVuSans-43"/>
       <use x="474.707031" xlink:href="#DejaVuSans-72"/>
       <use x="515.789062" xlink:href="#DejaVuSans-65"/>
       <use x="577.3125" xlink:href="#DejaVuSans-65"/>
       <use x="638.835938" xlink:href="#DejaVuSans-6b"/>
      </g>
     </g>
    </g>
    <g id="ytick_20">
     <g id="line2d_38">
      <g>
       <use style="stroke:#000000;stroke-width:0.8;" x="88.223906" xlink:href="#mca69f5c89d" y="115.411983"/>
      </g>
     </g>
     <g id="text_30">
      <!-- Crawford -->
      <g transform="translate(49.376094 118.071436)scale(0.07 -0.07)">
       <use xlink:href="#DejaVuSans-43"/>
       <use x="69.824219" xlink:href="#DejaVuSans-72"/>
       <use x="110.9375" xlink:href="#DejaVuSans-61"/>
       <use x="172.216797" xlink:href="#DejaVuSans-77"/>
       <use x="254.003906" xlink:href="#DejaVuSans-66"/>
       <use x="289.208984" xlink:href="#DejaVuSans-6f"/>
       <use x="350.390625" xlink:href="#DejaVuSans-72"/>
       <use x="391.488281" xlink:href="#DejaVuSans-64"/>
      </g>
     </g>
    </g>
    <g id="ytick_21">
     <g id="line2d_39">
      <g>
       <use style="stroke:#000000;stroke-width:0.8;" x="88.223906" xlink:href="#mca69f5c89d" y="106.523821"/>
      </g>
     </g>
     <g id="text_31">
      <!-- Clear Creek -->
      <g transform="translate(40.260781 109.183274)scale(0.07 -0.07)">
       <use xlink:href="#DejaVuSans-43"/>
       <use x="69.824219" xlink:href="#DejaVuSans-6c"/>
       <use x="97.607422" xlink:href="#DejaVuSans-65"/>
       <use x="159.130859" xlink:href="#DejaVuSans-61"/>
       <use x="220.410156" xlink:href="#DejaVuSans-72"/>
       <use x="261.523438" xlink:href="#DejaVuSans-20"/>
       <use x="293.310547" xlink:href="#DejaVuSans-43"/>
       <use x="363.134766" xlink:href="#DejaVuSans-72"/>
       <use x="404.216797" xlink:href="#DejaVuSans-65"/>
       <use x="465.740234" xlink:href="#DejaVuSans-65"/>
       <use x="527.263672" xlink:href="#DejaVuSans-6b"/>
      </g>
     </g>
    </g>
    <g id="ytick_22">
     <g id="line2d_40">
      <g>
       <use style="stroke:#000000;stroke-width:0.8;" x="88.223906" xlink:href="#mca69f5c89d" y="97.635659"/>
      </g>
     </g>
     <g id="text_32">
      <!-- Somerset -->
      <g transform="translate(47.795625 100.295112)scale(0.07 -0.07)">
       <use xlink:href="#DejaVuSans-53"/>
       <use x="63.476562" xlink:href="#DejaVuSans-6f"/>
       <use x="124.658203" xlink:href="#DejaVuSans-6d"/>
       <use x="222.070312" xlink:href="#DejaVuSans-65"/>
       <use x="283.59375" xlink:href="#DejaVuSans-72"/>
       <use x="324.707031" xlink:href="#DejaVuSans-73"/>
       <use x="376.806641" xlink:href="#DejaVuSans-65"/>
       <use x="438.330078" xlink:href="#DejaVuSans-74"/>
      </g>
     </g>
    </g>
    <g id="ytick_23">
     <g id="line2d_41">
      <g>
       <use style="stroke:#000000;stroke-width:0.8;" x="88.223906" xlink:href="#mca69f5c89d" y="88.747496"/>
      </g>
     </g>
     <g id="text_33">
      <!-- Timberland -->
      <g transform="translate(41.445313 91.406949)scale(0.07 -0.07)">
       <use xlink:href="#DejaVuSans-54"/>
       <use x="61.037109" xlink:href="#DejaVuSans-69"/>
       <use x="88.820312" xlink:href="#DejaVuSans-6d"/>
       <use x="186.232422" xlink:href="#DejaVuSans-62"/>
       <use x="249.708984" xlink:href="#DejaVuSans-65"/>
       <use x="311.232422" xlink:href="#DejaVuSans-72"/>
       <use x="352.345703" xlink:href="#DejaVuSans-6c"/>
       <use x="380.128906" xlink:href="#DejaVuSans-61"/>
       <use x="441.408203" xlink:href="#DejaVuSans-6e"/>
       <use x="504.787109" xlink:href="#DejaVuSans-64"/>
      </g>
     </g>
    </g>
    <g id="ytick_24">
     <g id="line2d_42">
      <g>
       <use style="stroke:#000000;stroke-width:0.8;" x="88.223906" xlink:href="#mca69f5c89d" y="79.859334"/>
      </g>
     </g>
     <g id="text_34">
      <!-- Veenker -->
      <g transform="translate(52.1575 82.518787)scale(0.07 -0.07)">
       <use xlink:href="#DejaVuSans-56"/>
       <use x="68.298828" xlink:href="#DejaVuSans-65"/>
       <use x="129.822266" xlink:href="#DejaVuSans-65"/>
       <use x="191.345703" xlink:href="#DejaVuSans-6e"/>
       <use x="254.724609" xlink:href="#DejaVuSans-6b"/>
       <use x="312.587891" xlink:href="#DejaVuSans-65"/>
       <use x="374.111328" xlink:href="#DejaVuSans-72"/>
      </g>
     </g>
    </g>
    <g id="ytick_25">
     <g id="line2d_43">
      <g>
       <use style="stroke:#000000;stroke-width:0.8;" x="88.223906" xlink:href="#mca69f5c89d" y="70.971172"/>
      </g>
     </g>
     <g id="text_35">
      <!-- Green Hills -->
      <g transform="translate(42.904375 73.630625)scale(0.07 -0.07)">
       <use xlink:href="#DejaVuSans-47"/>
       <use x="77.490234" xlink:href="#DejaVuSans-72"/>
       <use x="118.572266" xlink:href="#DejaVuSans-65"/>
       <use x="180.095703" xlink:href="#DejaVuSans-65"/>
       <use x="241.619141" xlink:href="#DejaVuSans-6e"/>
       <use x="304.998047" xlink:href="#DejaVuSans-20"/>
       <use x="336.785156" xlink:href="#DejaVuSans-48"/>
       <use x="411.980469" xlink:href="#DejaVuSans-69"/>
       <use x="439.763672" xlink:href="#DejaVuSans-6c"/>
       <use x="467.546875" xlink:href="#DejaVuSans-6c"/>
       <use x="495.330078" xlink:href="#DejaVuSans-73"/>
      </g>
     </g>
    </g>
    <g id="ytick_26">
     <g id="line2d_44">
      <g>
       <use style="stroke:#000000;stroke-width:0.8;" x="88.223906" xlink:href="#mca69f5c89d" y="62.08301"/>
      </g>
     </g>
     <g id="text_36">
      <!-- Northridge -->
      <g transform="translate(43.628438 64.742463)scale(0.07 -0.07)">
       <use xlink:href="#DejaVuSans-4e"/>
       <use x="74.804688" xlink:href="#DejaVuSans-6f"/>
       <use x="135.986328" xlink:href="#DejaVuSans-72"/>
       <use x="177.099609" xlink:href="#DejaVuSans-74"/>
       <use x="216.308594" xlink:href="#DejaVuSans-68"/>
       <use x="279.6875" xlink:href="#DejaVuSans-72"/>
       <use x="320.800781" xlink:href="#DejaVuSans-69"/>
       <use x="348.583984" xlink:href="#DejaVuSans-64"/>
       <use x="412.060547" xlink:href="#DejaVuSans-67"/>
       <use x="475.537109" xlink:href="#DejaVuSans-65"/>
      </g>
     </g>
    </g>
    <g id="ytick_27">
     <g id="line2d_45">
      <g>
       <use style="stroke:#000000;stroke-width:0.8;" x="88.223906" xlink:href="#mca69f5c89d" y="53.194848"/>
      </g>
     </g>
     <g id="text_37">
      <!-- Northridge Heights -->
      <g transform="translate(14.616719 55.854301)scale(0.07 -0.07)">
       <use xlink:href="#DejaVuSans-4e"/>
       <use x="74.804688" xlink:href="#DejaVuSans-6f"/>
       <use x="135.986328" xlink:href="#DejaVuSans-72"/>
       <use x="177.099609" xlink:href="#DejaVuSans-74"/>
       <use x="216.308594" xlink:href="#DejaVuSans-68"/>
       <use x="279.6875" xlink:href="#DejaVuSans-72"/>
       <use x="320.800781" xlink:href="#DejaVuSans-69"/>
       <use x="348.583984" xlink:href="#DejaVuSans-64"/>
       <use x="412.060547" xlink:href="#DejaVuSans-67"/>
       <use x="475.537109" xlink:href="#DejaVuSans-65"/>
       <use x="537.060547" xlink:href="#DejaVuSans-20"/>
       <use x="568.847656" xlink:href="#DejaVuSans-48"/>
       <use x="644.042969" xlink:href="#DejaVuSans-65"/>
       <use x="705.566406" xlink:href="#DejaVuSans-69"/>
       <use x="733.349609" xlink:href="#DejaVuSans-67"/>
       <use x="796.826172" xlink:href="#DejaVuSans-68"/>
       <use x="860.205078" xlink:href="#DejaVuSans-74"/>
       <use x="899.414062" xlink:href="#DejaVuSans-73"/>
      </g>
     </g>
    </g>
    <g id="ytick_28">
     <g id="line2d_46">
      <g>
       <use style="stroke:#000000;stroke-width:0.8;" x="88.223906" xlink:href="#mca69f5c89d" y="44.306685"/>
      </g>
     </g>
     <g id="text_38">
      <!-- Stone Brook -->
      <g transform="translate(38.486719 46.966138)scale(0.07 -0.07)">
       <use xlink:href="#DejaVuSans-53"/>
       <use x="63.476562" xlink:href="#DejaVuSans-74"/>
       <use x="102.685547" xlink:href="#DejaVuSans-6f"/>
       <use x="163.867188" xlink:href="#DejaVuSans-6e"/>
       <use x="227.246094" xlink:href="#DejaVuSans-65"/>
       <use x="288.769531" xlink:href="#DejaVuSans-20"/>
       <use x="320.556641" xlink:href="#DejaVuSans-42"/>
       <use x="389.160156" xlink:href="#DejaVuSans-72"/>
       <use x="430.242188" xlink:href="#DejaVuSans-6f"/>
       <use x="491.423828" xlink:href="#DejaVuSans-6f"/>
       <use x="552.605469" xlink:href="#DejaVuSans-6b"/>
      </g>
     </g>
    </g>
   </g>
   <g id="text_39">
    <!-- First-floor area by neighborhood -->
    <defs>
     <path d="M 4.890625 31.390625 
L 31.203125 31.390625 
L 31.203125 23.390625 
L 4.890625 23.390625 
z
" id="DejaVuSans-2d"/>
    </defs>
    <g transform="translate(149.636406 22.396875)scale(0.2 -0.2)">
     <use xlink:href="#DejaVuSans-46"/>
     <use x="57.410156" xlink:href="#DejaVuSans-69"/>
     <use x="85.193359" xlink:href="#DejaVuSans-72"/>
     <use x="126.306641" xlink:href="#DejaVuSans-73"/>
     <use x="178.40625" xlink:href="#DejaVuSans-74"/>
     <use x="217.615234" xlink:href="#DejaVuSans-2d"/>
     <use x="253.699219" xlink:href="#DejaVuSans-66"/>
     <use x="288.904297" xlink:href="#DejaVuSans-6c"/>
     <use x="316.6875" xlink:href="#DejaVuSans-6f"/>
     <use x="377.869141" xlink:href="#DejaVuSans-6f"/>
     <use x="439.050781" xlink:href="#DejaVuSans-72"/>
     <use x="480.164062" xlink:href="#DejaVuSans-20"/>
     <use x="511.951172" xlink:href="#DejaVuSans-61"/>
     <use x="573.230469" xlink:href="#DejaVuSans-72"/>
     <use x="614.3125" xlink:href="#DejaVuSans-65"/>
     <use x="675.835938" xlink:href="#DejaVuSans-61"/>
     <use x="737.115234" xlink:href="#DejaVuSans-20"/>
     <use x="768.902344" xlink:href="#DejaVuSans-62"/>
     <use x="832.378906" xlink:href="#DejaVuSans-79"/>
     <use x="891.558594" xlink:href="#DejaVuSans-20"/>
     <use x="923.345703" xlink:href="#DejaVuSans-6e"/>
     <use x="986.724609" xlink:href="#DejaVuSans-65"/>
     <use x="1048.248047" xlink:href="#DejaVuSans-69"/>
     <use x="1076.03125" xlink:href="#DejaVuSans-67"/>
     <use x="1139.507812" xlink:href="#DejaVuSans-68"/>
     <use x="1202.886719" xlink:href="#DejaVuSans-62"/>
     <use x="1266.363281" xlink:href="#DejaVuSans-6f"/>
     <use x="1327.544922" xlink:href="#DejaVuSans-72"/>
     <use x="1368.642578" xlink:href="#DejaVuSans-68"/>
     <use x="1432.021484" xlink:href="#DejaVuSans-6f"/>
     <use x="1493.203125" xlink:href="#DejaVuSans-6f"/>
     <use x="1554.384766" xlink:href="#DejaVuSans-64"/>
    </g>
   </g>
  </g>
 </g>
 <defs>
  <clipPath id="p6e004d4657">
   <rect height="271.8" width="446.4" x="88.223906" y="28.396875"/>
  </clipPath>
 </defs>
</svg>
